<svg width="30" height="30" viewBox="0 0 30 30" fill="none" xmlns="http://www.w3.org/2000/svg">
<path fill-rule="evenodd" clip-rule="evenodd" d="M15 30C23.2843 30 30 23.2843 30 15C30 6.71573 23.2843 0 15 0C6.71573 0 0 6.71573 0 15C0 23.2843 6.71573 30 15 30ZM13.2041 14.9933L18.3598 20.2013C18.878 20.7248 18.8647 21.5839 18.3598 22.1074C17.8415 22.6309 17.0044 22.6309 16.4862 22.1074L10.3871 15.9463C9.86888 15.4228 9.86888 14.5772 10.3871 14.0537L16.4862 7.89262C17.0044 7.36913 17.8415 7.36913 18.3598 7.89262C18.878 8.41611 18.878 9.26175 18.3598 9.78524L13.2041 14.9933Z" fill="white"/>
</svg>
