<svg width="30" height="30" viewBox="0 0 30 30" fill="none" xmlns="http://www.w3.org/2000/svg">
<path fill-rule="evenodd" clip-rule="evenodd" d="M15 30C23.2843 30 30 23.2843 30 15C30 6.71573 23.2843 0 15 0C6.71573 0 0 6.71573 0 15C0 23.2843 6.71573 30 15 30ZM16.7943 14.9933L11.6387 20.2013C11.1204 20.7248 11.1337 21.5839 11.6387 22.1074C12.1569 22.6309 12.994 22.6309 13.5122 22.1074L19.6113 15.9463C20.1296 15.4228 20.1296 14.5772 19.6113 14.0537L13.5122 7.89262C12.994 7.36913 12.1569 7.36913 11.6387 7.89262C11.1204 8.41611 11.1204 9.26175 11.6387 9.78524L16.7943 14.9933Z" fill="white"/>
</svg>
