<svg width="48" height="48" viewBox="0 0 48 48" fill="none" xmlns="http://www.w3.org/2000/svg">
<path d="M34.8 41H13.2C12.0266 41 11.6159 40.993 11.2997 40.9171C10.2027 40.6538 9.34624 39.7973 9.08289 38.7003C9.00696 38.3841 9 37.9734 9 36.8V11.2C9 10.0266 9.00696 9.61592 9.08289 9.29966C9.34624 8.20272 10.2027 7.34624 11.2997 7.08289C11.6159 7.00696 12.0266 7 13.2 7H31.5192C32.1064 7 32.3079 7.00209 32.4911 7.02671C33.1138 7.11036 33.6945 7.3874 34.1514 7.81875C34.2858 7.94572 34.4142 8.10101 34.7837 8.55737L38.0644 12.6101C38.341 12.9517 38.4346 13.0693 38.5119 13.1877C38.7736 13.5885 38.9356 14.046 38.9844 14.5222C38.9988 14.6629 39 14.8132 39 15.2527V36.8C39 37.9734 38.993 38.3841 38.9171 38.7003C38.6538 39.7973 37.7973 40.6538 36.7003 40.9171C36.3841 40.993 35.9734 41 34.8 41Z" stroke="white" stroke-width="2"/>
<rect x="15" y="25" width="18" height="2" rx="1" fill="white"/>
<rect x="15" y="29" width="18" height="2" rx="1" fill="white"/>
<rect x="15" y="33" width="14" height="2" rx="1" fill="white"/>
</svg>
