<svg width="48" height="48" viewBox="0 0 48 48" fill="none" xmlns="http://www.w3.org/2000/svg">
<path d="M47.6664 26.2526C47.5848 26.2526 47.5104 26.304 47.472 26.4116C46.98 27.7797 46.3152 28.5935 45.768 28.5935C45.4536 28.5935 45.3264 28.2521 45.3264 27.7166C45.3264 26.3765 46.1496 23.5351 46.5648 22.2395C46.6128 22.0828 46.644 21.9425 46.644 21.8232C46.644 21.4467 46.4328 21.2619 45.9096 21.2619C45.3456 21.2619 44.7384 21.4771 44.148 22.485C43.944 21.5964 43.3272 21.2081 42.4656 21.2081C41.4696 21.2081 40.5072 21.8326 39.7152 22.8452C38.9232 23.8578 37.992 24.1899 37.2912 24.0262C37.7952 22.8241 37.9824 21.9261 37.9824 21.2596C37.9824 20.2142 37.452 19.5828 36.5952 19.5828C35.292 19.5828 34.5408 20.7942 34.5408 22.0688C34.5408 23.0533 34.9992 24.0659 36.0072 24.5571C35.1624 26.4186 33.9288 28.1024 33.4608 28.1024C32.856 28.1024 32.6784 25.2189 32.712 23.1562C32.7336 21.9729 32.8344 21.9121 32.8344 21.5543C32.8344 21.3485 32.6976 21.2081 32.148 21.2081C30.8664 21.2081 30.4704 22.2652 30.4104 23.479C30.391 23.9402 30.3169 24.3977 30.1896 24.8424C29.6544 26.7039 28.5504 28.1165 27.8304 28.1165C27.4968 28.1165 27.4056 27.7914 27.4056 27.3658C27.4056 26.0257 28.176 24.3513 28.176 22.9224C28.176 21.8723 27.7032 21.2081 26.8128 21.2081C25.764 21.2081 24.3768 22.4242 23.064 24.7021C23.496 22.9574 23.6736 21.2689 22.3944 21.2689C22.1169 21.273 21.8444 21.342 21.6 21.4701C21.5179 21.5075 21.4493 21.5681 21.4031 21.644C21.3569 21.7199 21.3352 21.8076 21.3408 21.8957C21.4632 23.7526 19.8048 28.5094 18.2328 28.5094C17.9472 28.5094 17.808 28.2077 17.808 27.7212C17.808 26.3789 18.6288 23.5444 19.0416 22.2465C19.0944 22.0781 19.1232 21.9331 19.1232 21.8068C19.1232 21.4514 18.8976 21.2689 18.3864 21.2689C17.8248 21.2689 17.2152 21.4771 16.6272 22.485C16.4208 21.5964 15.804 21.2081 14.9424 21.2081C13.5288 21.2081 11.9496 22.6651 11.256 24.5641C10.3272 27.0992 8.4552 29.5477 5.9352 29.5477C3.648 29.5477 2.4408 27.6932 2.4408 24.7629C2.4408 20.5323 5.628 17.0758 7.992 17.0758C9.1224 17.0758 9.6624 17.7774 9.6624 18.8531C9.6624 20.1558 8.916 20.7615 8.916 21.2572C8.916 21.4093 9.0456 21.5589 9.3024 21.5589C10.3296 21.5589 11.5392 20.3826 11.5392 18.7783C11.5392 17.174 10.2024 16 7.8384 16C3.9312 16 0 19.8307 0 24.7395C0 28.645 1.9776 31 5.3976 31C7.7304 31 9.768 29.232 10.8672 27.1693C10.992 28.8789 11.7888 29.7722 13.0032 29.7722C14.0832 29.7722 14.9568 29.1455 15.624 28.044C15.8808 29.1969 16.5624 29.7605 17.448 29.7605C18.4632 29.7605 19.3128 29.1338 20.1216 27.9691C20.1096 28.8835 20.3232 29.7442 21.1368 29.7442C21.5208 29.7442 21.9792 29.6576 22.0608 29.3302C22.9176 25.8784 25.0344 23.0603 25.6824 23.0603C25.8744 23.0603 25.9272 23.2404 25.9272 23.4532C25.9272 24.391 25.248 26.3134 25.248 27.5412C25.248 28.8672 25.8264 29.7442 27.0216 29.7442C28.3464 29.7442 29.6928 28.1632 30.5904 25.8527C30.8712 28.0112 31.4784 29.7535 32.4288 29.7535C33.5952 29.7535 35.6664 27.3611 36.9216 24.8283C37.4136 24.8891 38.1528 24.8728 38.8632 24.384C38.5608 25.13 38.3832 25.9462 38.3832 26.7624C38.3832 29.1127 39.5352 29.7722 40.5264 29.7722C41.604 29.7722 42.4776 29.1455 43.1472 28.044C43.368 29.0379 43.932 29.7582 44.9688 29.7582C46.5912 29.7582 48 28.1422 48 26.8162C48 26.4654 47.8464 26.2526 47.6664 26.2526ZM13.992 28.4696C13.3368 28.4696 13.08 27.8265 13.08 26.8676C13.08 25.2025 14.2488 22.4219 15.4848 22.4219C16.0248 22.4219 16.2288 23.0416 16.2288 23.7993C16.2288 25.4902 15.1176 28.4696 13.992 28.4696ZM36.4344 23.5C36.0432 23.0463 35.9016 22.4289 35.9016 21.8793C35.9016 21.2011 36.156 20.6282 36.4608 20.6282C36.7656 20.6282 36.8592 20.9205 36.8592 21.3274C36.8592 22.008 36.6096 23.0019 36.4344 23.5ZM41.5152 28.4696C40.86 28.4696 40.6032 27.7306 40.6032 26.8676C40.6032 25.261 41.772 22.4219 43.0176 22.4219C43.5576 22.4219 43.7496 23.037 43.7496 23.7993C43.7496 25.4902 42.6576 28.4696 41.5152 28.4696Z" fill="white"/>
</svg>
