<svg width="21" height="21" viewBox="0 0 21 21" fill="none" xmlns="http://www.w3.org/2000/svg">
<path d="M7.01074 5.5216C7.35025 5.51866 7.67863 5.51582 7.89845 5.95736C8.08866 6.3394 8.32256 6.99531 8.59865 7.77884L8.60223 7.789C8.6667 7.97175 8.76735 8.25708 8.63506 8.4462C8.5003 8.63886 8.19979 9.02656 7.98216 9.27767C7.92641 9.342 7.81469 9.48919 7.96694 9.72909C8.00479 9.78873 8.03746 9.84984 8.07345 9.91717C8.21844 10.1884 8.41742 10.5606 9.22663 11.345C10.0434 12.1368 11.068 12.5926 11.4459 12.7442C11.5486 12.8024 11.7954 12.8804 11.9609 12.7263C12.0371 12.6555 12.1805 12.4723 12.3369 12.2725C12.5205 12.0379 12.7221 11.7804 12.8538 11.6549C12.8578 11.6513 12.8619 11.6476 12.8661 11.6437C12.9541 11.563 13.0938 11.435 13.3505 11.5377C13.5752 11.6277 14.4376 12.0427 15.089 12.3562C15.217 12.4178 15.3369 12.4755 15.4422 12.526C15.5458 12.5589 15.6961 12.6797 15.6961 12.922C15.6961 13.4685 15.3092 15.0868 13.4286 15.1203C11.548 15.1537 9.28275 14.1702 7.55874 12.269C5.77233 10.2989 5.24219 8.98193 5.24219 7.77884C5.24219 6.31085 6.26898 5.52208 6.92749 5.52208C6.95528 5.52208 6.98305 5.52184 7.01074 5.5216Z" fill="white"/>
<path fill-rule="evenodd" clip-rule="evenodd" d="M20.3984 10.6001C20.3984 16.123 15.9213 20.6001 10.3984 20.6001C8.6691 20.6001 7.04228 20.1611 5.62334 19.3885L0.398438 20.6001L1.69735 15.5322C0.870578 14.0768 0.398438 12.3936 0.398438 10.6001C0.398438 5.07725 4.87559 0.600098 10.3984 0.600098C15.9213 0.600098 20.3984 5.07725 20.3984 10.6001ZM18.86 10.6001C18.86 15.2733 15.0716 19.0616 10.3984 19.0616C8.61599 19.0616 6.96227 18.5105 5.59839 17.5693L2.70613 18.2924L3.46404 15.4503C2.50165 14.0769 1.9369 12.4044 1.9369 10.6001C1.9369 5.92692 5.72526 2.13856 10.3984 2.13856C15.0716 2.13856 18.86 5.92692 18.86 10.6001Z" fill="white"/>
</svg>
